<?xml version="1.0" standalone="no"?>
<!DOCTYPE svg PUBLIC "-//W3C//DTD SVG 20010904//EN"
 "http://www.w3.org/TR/2001/REC-SVG-20010904/DTD/svg10.dtd">
<svg version="1.0" xmlns="http://www.w3.org/2000/svg"
 width="128.000000pt" height="128.000000pt" viewBox="0 0 128.000000 128.000000"
 preserveAspectRatio="xMidYMid meet">
<metadata>
Created by potrace 1.11, written by Peter Selinger 2001-2013
</metadata>
<g transform="translate(0.000000,128.000000) scale(0.100000,-0.100000)"
fill="#000000" stroke="none">
<path d="M557 1218 c-70 -15 -124 -47 -176 -104 -91 -99 -110 -159 -110 -339
1 -395 7 -593 20 -621 29 -61 179 -104 364 -104 176 0 227 41 289 228 16 45
39 95 52 111 23 28 24 34 30 267 6 228 5 242 -16 304 -36 108 -90 175 -181
225 -41 22 -65 27 -133 30 -46 1 -88 5 -92 7 -5 3 -26 1 -47 -4z"/>
</g>
</svg>
